<svg xmlns="http://www.w3.org/2000/svg" xmlns:xlink="http://www.w3.org/1999/xlink" width="1600" height="400" viewBox="0 0 1600 400" role="img" aria-labelledby="title">
  <title id="title">Matterward Labs C horizontal lockup for dark backgrounds</title>
  <g transform="translate(80 60) scale(2.8)">
    <circle cx="31" cy="50" r="31" fill="#FF7F3C"/>
    <path d="M60 14 93 0v100L60 86v-9.923A39 39 0 0 0 60 23.923V14Z" fill="#EDEDEC"/>
  </g>
  <svg x="410" y="150" width="1040" height="100" viewBox="0 0 1561 150" preserveAspectRatio="xMidYMid meet">
    <svg x="0" y="0" width="1102" height="150" viewBox="0 0 1102 150">
<defs>
<g>
<g id="mw-glyph-0">
<path d="M 13.886719 0 L 13.886719 -145.507812 L 56.425781 -145.507812 L 82.027344 -74.542969 C 82.988281 -71.601562 84.089844 -67.796875 85.324219 -63.121094 C 86.558594 -58.449219 87.824219 -53.414062 89.117188 -48.011719 C 90.410156 -42.609375 91.621094 -37.347656 92.757812 -32.226562 C 93.894531 -27.105469 94.84375 -22.613281 95.601562 -18.75 L 90.050781 -18.75 C 90.84375 -22.507812 91.800781 -26.925781 92.921875 -32.011719 C 94.042969 -37.097656 95.25 -42.347656 96.542969 -47.769531 C 97.835938 -53.1875 99.101562 -58.261719 100.339844 -62.988281 C 101.578125 -67.714844 102.679688 -71.566406 103.644531 -74.542969 L 128.886719 -145.507812 L 171.523438 -145.507812 L 171.523438 0 L 143.550781 0 L 143.550781 -71.019531 C 143.550781 -74.160156 143.59375 -78.027344 143.6875 -82.613281 C 143.777344 -87.203125 143.894531 -92.140625 144.035156 -97.425781 C 144.175781 -102.714844 144.3125 -108.050781 144.4375 -113.4375 C 144.566406 -118.824219 144.648438 -123.90625 144.683594 -128.679688 L 146.550781 -128.679688 C 145.273438 -123.425781 143.875 -118.019531 142.359375 -112.457031 C 140.84375 -106.894531 139.332031 -101.492188 137.824219 -96.253906 C 136.316406 -91.015625 134.882812 -86.21875 133.519531 -81.863281 C 132.160156 -77.503906 130.996094 -73.890625 130.023438 -71.019531 L 104.535156 0 L 80.90625 0 L 55.019531 -71.019531 C 54.050781 -73.855469 52.894531 -77.425781 51.554688 -81.726562 C 50.214844 -86.03125 48.777344 -90.785156 47.238281 -95.984375 C 45.699219 -101.1875 44.15625 -106.589844 42.609375 -112.1875 C 41.0625 -117.785156 39.5625 -123.285156 38.109375 -128.679688 L 40.351562 -128.679688 C 40.421875 -124.15625 40.523438 -119.238281 40.648438 -113.921875 C 40.777344 -108.605469 40.902344 -103.277344 41.027344 -97.9375 C 41.148438 -92.597656 41.265625 -87.585938 41.375 -82.910156 C 41.484375 -78.230469 41.539062 -74.269531 41.539062 -71.019531 L 41.539062 0 Z M 13.886719 0 "/>
</g>
<g id="mw-glyph-1">
<path d="M 43.492188 2.1875 C 36.5625 2.1875 30.339844 0.953125 24.824219 -1.519531 C 19.308594 -3.992188 14.964844 -7.664062 11.792969 -12.527344 C 8.617188 -17.394531 7.03125 -23.425781 7.03125 -30.613281 C 7.03125 -36.746094 8.164062 -41.839844 10.433594 -45.894531 C 12.703125 -49.945312 15.796875 -53.199219 19.710938 -55.648438 C 23.625 -58.101562 28.050781 -59.960938 32.992188 -61.226562 C 37.929688 -62.496094 43.070312 -63.398438 48.414062 -63.929688 C 54.746094 -64.601562 59.871094 -65.207031 63.78125 -65.753906 C 67.691406 -66.296875 70.566406 -67.15625 72.40625 -68.335938 C 74.246094 -69.515625 75.164062 -71.308594 75.164062 -73.714844 L 75.164062 -74.214844 C 75.164062 -77.570312 74.472656 -80.410156 73.089844 -82.730469 C 71.703125 -85.054688 69.667969 -86.835938 66.988281 -88.074219 C 64.304688 -89.3125 60.996094 -89.929688 57.0625 -89.929688 C 53.082031 -89.929688 49.621094 -89.324219 46.671875 -88.105469 C 43.722656 -86.886719 41.308594 -85.285156 39.4375 -83.296875 C 37.566406 -81.3125 36.207031 -79.121094 35.355469 -76.726562 L 10.15625 -81.371094 C 12.164062 -87.777344 15.382812 -93.140625 19.8125 -97.453125 C 24.246094 -101.769531 29.640625 -105.027344 36 -107.234375 C 42.359375 -109.441406 49.375 -110.546875 57.054688 -110.546875 C 62.546875 -110.546875 67.988281 -109.894531 73.375 -108.589844 C 78.761719 -107.289062 83.648438 -105.1875 88.039062 -102.289062 C 92.425781 -99.394531 95.933594 -95.566406 98.558594 -90.804688 C 101.1875 -86.046875 102.5 -80.195312 102.5 -73.246094 L 102.5 0 L 76.46875 0 L 76.46875 -15.109375 L 75.472656 -15.109375 C 73.796875 -11.863281 71.511719 -8.9375 68.617188 -6.324219 C 65.71875 -3.710938 62.195312 -1.636719 58.035156 -0.105469 C 53.878906 1.421875 49.03125 2.1875 43.492188 2.1875 Z M 50.871094 -17.515625 C 55.796875 -17.515625 60.089844 -18.492188 63.746094 -20.445312 C 67.40625 -22.398438 70.25 -25.011719 72.289062 -28.292969 C 74.324219 -31.570312 75.339844 -35.171875 75.339844 -39.101562 L 75.339844 -51.46875 C 74.480469 -50.828125 73.121094 -50.230469 71.269531 -49.679688 C 69.417969 -49.128906 67.339844 -48.636719 65.039062 -48.203125 C 62.738281 -47.769531 60.476562 -47.398438 58.253906 -47.082031 C 56.027344 -46.769531 54.101562 -46.5 52.464844 -46.273438 C 48.761719 -45.78125 45.464844 -44.945312 42.578125 -43.765625 C 39.691406 -42.582031 37.433594 -40.976562 35.804688 -38.945312 C 34.179688 -36.914062 33.363281 -34.328125 33.363281 -31.1875 C 33.363281 -28.203125 34.121094 -25.695312 35.636719 -23.667969 C 37.148438 -21.644531 39.21875 -20.109375 41.839844 -19.074219 C 44.464844 -18.035156 47.472656 -17.515625 50.871094 -17.515625 Z M 50.871094 -17.515625 "/>
</g>
<g id="mw-glyph-2">
<path d="M 65.34375 -109.179688 L 65.34375 -88.074219 L 1.953125 -88.074219 L 1.953125 -109.179688 Z M 17.214844 -135.15625 L 44.550781 -135.15625 L 44.550781 -31.351562 C 44.550781 -27.640625 45.359375 -24.914062 46.980469 -23.164062 C 48.601562 -21.417969 51.265625 -20.542969 54.980469 -20.542969 C 56.117188 -20.542969 57.664062 -20.679688 59.625 -20.953125 C 61.582031 -21.230469 63.117188 -21.496094 64.230469 -21.757812 L 68.324219 -0.980469 C 65.300781 -0.0664062 62.261719 0.574219 59.203125 0.945312 C 56.144531 1.3125 53.195312 1.5 50.363281 1.5 C 39.660156 1.5 31.460938 -1.128906 25.765625 -6.390625 C 20.066406 -11.648438 17.214844 -19.175781 17.214844 -28.976562 Z M 17.214844 -135.15625 "/>
</g>
<g id="mw-glyph-3">
<path d="M 61.769531 2.167969 C 50.722656 2.167969 41.199219 -0.125 33.199219 -4.710938 C 25.195312 -9.292969 19.046875 -15.785156 14.753906 -24.183594 C 10.457031 -32.582031 8.308594 -42.511719 8.308594 -53.976562 C 8.308594 -65.203125 10.4375 -75.058594 14.695312 -83.542969 C 18.949219 -92.027344 24.972656 -98.648438 32.757812 -103.40625 C 40.542969 -108.167969 49.6875 -110.546875 60.199219 -110.546875 C 67.109375 -110.546875 73.613281 -109.441406 79.710938 -107.226562 C 85.8125 -105.011719 91.195312 -101.640625 95.855469 -97.113281 C 100.519531 -92.585938 104.175781 -86.855469 106.820312 -79.917969 C 109.46875 -72.980469 110.792969 -64.773438 110.792969 -55.296875 L 110.792969 -47.226562 L 20.3125 -47.226562 L 20.3125 -65.058594 L 97.320312 -65.058594 L 84.546875 -60.03125 C 84.546875 -65.960938 83.636719 -71.136719 81.8125 -75.5625 C 79.992188 -79.984375 77.292969 -83.425781 73.714844 -85.878906 C 70.136719 -88.332031 65.691406 -89.558594 60.375 -89.558594 C 55.058594 -89.558594 50.542969 -88.316406 46.820312 -85.824219 C 43.101562 -83.335938 40.265625 -79.984375 38.320312 -75.777344 C 36.375 -71.566406 35.402344 -66.835938 35.402344 -61.585938 L 35.402344 -49.128906 C 35.402344 -42.523438 36.515625 -36.960938 38.742188 -32.441406 C 40.972656 -27.921875 44.101562 -24.523438 48.136719 -22.242188 C 52.171875 -19.960938 56.851562 -18.820312 62.171875 -18.820312 C 65.738281 -18.820312 68.976562 -19.328125 71.890625 -20.34375 C 74.808594 -21.363281 77.3125 -22.875 79.414062 -24.882812 C 81.511719 -26.890625 83.113281 -29.371094 84.21875 -32.320312 L 109.121094 -27.457031 C 107.371094 -21.519531 104.34375 -16.328125 100.042969 -11.882812 C 95.742188 -7.4375 90.367188 -3.984375 83.910156 -1.523438 C 77.457031 0.9375 70.074219 2.167969 61.769531 2.167969 Z M 61.769531 2.167969 "/>
</g>
<g id="mw-glyph-4">
<path d="M 12.96875 0 L 12.96875 -109.179688 L 39.453125 -109.179688 L 39.453125 -90.535156 L 40.625 -90.535156 C 42.613281 -97.066406 46.007812 -102.050781 50.800781 -105.492188 C 55.597656 -108.933594 61.085938 -110.65625 67.277344 -110.65625 C 68.753906 -110.65625 70.367188 -110.578125 72.113281 -110.425781 C 73.859375 -110.273438 75.371094 -110.058594 76.644531 -109.789062 L 76.644531 -85.039062 C 75.480469 -85.433594 73.6875 -85.765625 71.265625 -86.042969 C 68.847656 -86.316406 66.539062 -86.453125 64.339844 -86.453125 C 59.746094 -86.453125 55.625 -85.46875 51.976562 -83.492188 C 48.324219 -81.515625 45.464844 -78.785156 43.402344 -75.296875 C 41.335938 -71.8125 40.304688 -67.769531 40.304688 -63.171875 L 40.304688 0 Z M 12.96875 0 "/>
</g>
<g id="mw-glyph-5">
<path d="M 36.03125 0 L 3.671875 -109.179688 L 32.386719 -109.179688 L 42.503906 -67.589844 C 44.152344 -60.492188 45.9375 -52.714844 47.859375 -44.261719 C 49.78125 -35.804688 51.574219 -26.425781 53.242188 -16.128906 L 49.953125 -16.128906 C 51.699219 -26.175781 53.582031 -35.445312 55.601562 -43.933594 C 57.617188 -52.421875 59.511719 -60.304688 61.285156 -67.589844 L 71.777344 -109.179688 L 97.382812 -109.179688 L 107.59375 -67.589844 C 109.296875 -60.382812 111.160156 -52.554688 113.175781 -44.097656 C 115.1875 -35.644531 117.070312 -26.320312 118.820312 -16.128906 L 115.5625 -16.128906 C 117.234375 -26.25 118.988281 -35.535156 120.816406 -43.992188 C 122.648438 -52.445312 124.40625 -60.3125 126.089844 -67.589844 L 136.207031 -109.179688 L 165.273438 -109.179688 L 132.738281 0 L 105.019531 0 L 92.574219 -43.347656 C 91.347656 -47.660156 90.128906 -52.382812 88.921875 -57.515625 C 87.71875 -62.652344 86.542969 -67.886719 85.402344 -73.226562 C 84.261719 -78.5625 83.097656 -83.621094 81.90625 -88.40625 L 86.867188 -88.40625 C 85.738281 -83.660156 84.589844 -78.605469 83.414062 -73.25 C 82.242188 -67.898438 81.058594 -62.632812 79.867188 -57.464844 C 78.675781 -52.292969 77.453125 -47.585938 76.195312 -43.347656 L 63.75 0 Z M 36.03125 0 "/>
</g>
<g id="mw-glyph-6">
<path d="M 53.050781 1.902344 C 44.589844 1.902344 36.96875 -0.28125 30.191406 -4.65625 C 23.417969 -9.027344 18.074219 -15.402344 14.167969 -23.777344 C 10.261719 -32.15625 8.308594 -42.355469 8.308594 -54.386719 C 8.308594 -66.671875 10.316406 -76.984375 14.328125 -85.328125 C 18.339844 -93.671875 23.726562 -99.960938 30.488281 -104.195312 C 37.25 -108.429688 44.730469 -110.546875 52.929688 -110.546875 C 59.265625 -110.546875 64.492188 -109.484375 68.617188 -107.359375 C 72.738281 -105.238281 76.039062 -102.65625 78.519531 -99.621094 C 81 -96.585938 82.871094 -93.695312 84.128906 -90.953125 L 85.144531 -90.953125 L 85.144531 -145.507812 L 112.480469 -145.507812 L 112.480469 0 L 85.644531 0 L 85.644531 -17.378906 L 84.128906 -17.378906 C 82.8125 -14.597656 80.886719 -11.722656 78.355469 -8.753906 C 75.824219 -5.785156 72.511719 -3.265625 68.414062 -1.199219 C 64.320312 0.871094 59.199219 1.902344 53.050781 1.902344 Z M 61.007812 -20.277344 C 66.269531 -20.277344 70.742188 -21.710938 74.417969 -24.582031 C 78.097656 -27.449219 80.894531 -31.445312 82.816406 -36.578125 C 84.734375 -41.707031 85.691406 -47.679688 85.691406 -54.492188 C 85.691406 -61.363281 84.742188 -67.328125 82.839844 -72.382812 C 80.941406 -77.4375 78.152344 -81.367188 74.472656 -84.164062 C 70.792969 -86.964844 66.304688 -88.363281 61.007812 -88.363281 C 55.597656 -88.363281 51.0625 -86.910156 47.394531 -84.003906 C 43.726562 -81.097656 40.96875 -77.097656 39.113281 -72.007812 C 37.261719 -66.914062 36.332031 -61.078125 36.332031 -54.492188 C 36.332031 -47.902344 37.269531 -42.023438 39.140625 -36.859375 C 41.011719 -31.699219 43.789062 -27.644531 47.476562 -24.699219 C 51.160156 -21.75 55.671875 -20.277344 61.007812 -20.277344 Z M 61.007812 -20.277344 "/>
</g>
</g>
</defs>
<g fill="#EDEDEC" fill-opacity="1">
<use xlink:href="#mw-glyph-0" x="-13" y="146.75"/>
<use xlink:href="#mw-glyph-1" x="172.453125" y="146.75"/>
<use xlink:href="#mw-glyph-2" x="287.890625" y="146.75"/>
<use xlink:href="#mw-glyph-2" x="358.09375" y="146.75"/>
<use xlink:href="#mw-glyph-3" x="428.109375" y="146.75"/>
<use xlink:href="#mw-glyph-4" x="546.859375" y="146.75"/>
<use xlink:href="#mw-glyph-5" x="628.984375" y="146.75"/>
<use xlink:href="#mw-glyph-1" x="797.5" y="146.75"/>
<use xlink:href="#mw-glyph-4" x="912.9375" y="146.75"/>
<use xlink:href="#mw-glyph-6" x="988.78125" y="146.75"/>
</g>
</svg>
<svg x="1134" y="0" width="427" height="150" viewBox="0 0 427 150">
<defs>
<g>
<g id="labs-glyph-0">
<path d="M 17.578125 0 L 17.578125 -145.507812 L 36.132812 -145.507812 L 36.132812 -16.40625 L 103.515625 -16.40625 L 103.515625 0 Z M 17.578125 0 "/>
</g>
<g id="labs-glyph-1">
<path d="M 45.996094 2.539062 C 39.09375 2.539062 32.828125 1.238281 27.195312 -1.367188 C 21.566406 -3.972656 17.089844 -7.78125 13.769531 -12.792969 C 10.449219 -17.804688 8.789062 -23.894531 8.789062 -31.054688 C 8.789062 -37.304688 10.027344 -42.382812 12.5 -46.289062 C 14.972656 -50.195312 18.277344 -53.273438 22.414062 -55.515625 C 26.546875 -57.765625 31.121094 -59.441406 36.132812 -60.546875 C 41.144531 -61.652344 46.191406 -62.53125 51.269531 -63.183594 C 57.78125 -64.03125 63.085938 -64.679688 67.1875 -65.136719 C 71.289062 -65.59375 74.332031 -66.375 76.320312 -67.480469 C 78.304688 -68.585938 79.296875 -70.476562 79.296875 -73.144531 L 79.296875 -73.730469 C 79.296875 -78.289062 78.449219 -82.144531 76.757812 -85.304688 C 75.066406 -88.460938 72.527344 -90.886719 69.140625 -92.578125 C 65.753906 -94.269531 61.523438 -95.117188 56.445312 -95.117188 C 51.238281 -95.117188 46.777344 -94.304688 43.066406 -92.675781 C 39.355469 -91.046875 36.34375 -89.015625 34.03125 -86.570312 C 31.722656 -84.132812 29.980469 -81.640625 28.808594 -79.101562 L 11.914062 -84.667969 C 14.714844 -91.308594 18.488281 -96.5 23.242188 -100.242188 C 27.996094 -103.988281 33.234375 -106.640625 38.964844 -108.203125 C 44.695312 -109.765625 50.359375 -110.546875 55.957031 -110.546875 C 59.601562 -110.546875 63.753906 -110.109375 68.40625 -109.226562 C 73.0625 -108.351562 77.554688 -106.609375 81.882812 -104.003906 C 86.214844 -101.398438 89.796875 -97.542969 92.625 -92.429688 C 95.460938 -87.320312 96.875 -80.5 96.875 -71.972656 L 96.875 0 L 79.589844 0 L 79.589844 -14.84375 L 78.417969 -14.84375 C 77.179688 -12.304688 75.195312 -9.683594 72.460938 -6.984375 C 69.726562 -4.28125 66.179688 -2.019531 61.816406 -0.195312 C 57.453125 1.628906 52.179688 2.539062 45.996094 2.539062 Z M 49.023438 -12.988281 C 55.535156 -12.988281 61.035156 -14.257812 65.527344 -16.796875 C 70.019531 -19.335938 73.4375 -22.640625 75.78125 -26.710938 C 78.125 -30.777344 79.296875 -35.027344 79.296875 -39.453125 L 79.296875 -54.589844 C 78.582031 -53.742188 77.019531 -52.976562 74.609375 -52.296875 C 72.199219 -51.609375 69.449219 -51.007812 66.359375 -50.488281 C 63.265625 -49.96875 60.269531 -49.527344 57.375 -49.171875 C 54.476562 -48.8125 52.179688 -48.535156 50.488281 -48.339844 C 46.257812 -47.820312 42.300781 -46.921875 38.625 -45.65625 C 34.945312 -44.382812 32 -42.53125 29.785156 -40.085938 C 27.570312 -37.648438 26.464844 -34.34375 26.464844 -30.175781 C 26.464844 -26.398438 27.441406 -23.242188 29.394531 -20.703125 C 31.347656 -18.164062 34.015625 -16.242188 37.402344 -14.941406 C 40.789062 -13.640625 44.660156 -12.988281 49.023438 -12.988281 Z M 49.023438 -12.988281 "/>
</g>
<g id="labs-glyph-2">
<path d="M 66.113281 2.34375 C 59.210938 2.34375 53.644531 1.15625 49.414062 -1.21875 C 45.183594 -3.597656 41.925781 -6.296875 39.648438 -9.328125 C 37.371094 -12.351562 35.613281 -14.875 34.375 -16.894531 L 32.421875 -16.894531 L 32.421875 0 L 15.429688 0 L 15.429688 -145.507812 L 33.007812 -145.507812 L 33.007812 -91.699219 L 34.375 -91.699219 C 35.613281 -93.652344 37.335938 -96.109375 39.550781 -99.070312 C 41.765625 -102.035156 44.953125 -104.6875 49.121094 -107.03125 C 53.289062 -109.375 58.917969 -110.546875 66.015625 -110.546875 C 75.128906 -110.546875 83.15625 -108.269531 90.085938 -103.710938 C 97.023438 -99.152344 102.457031 -92.660156 106.398438 -84.226562 C 110.335938 -75.796875 112.304688 -65.820312 112.304688 -54.296875 C 112.304688 -42.707031 110.351562 -32.683594 106.445312 -24.21875 C 102.539062 -15.753906 97.117188 -9.210938 90.1875 -4.589844 C 83.25 0.03125 75.226562 2.34375 66.113281 2.34375 Z M 63.476562 -13.378906 C 70.3125 -13.378906 76.023438 -15.21875 80.617188 -18.898438 C 85.203125 -22.574219 88.65625 -27.523438 90.96875 -33.742188 C 93.277344 -39.957031 94.433594 -46.875 94.433594 -54.492188 C 94.433594 -62.042969 93.292969 -68.863281 91.015625 -74.953125 C 88.738281 -81.039062 85.304688 -85.871094 80.710938 -89.453125 C 76.125 -93.035156 70.378906 -94.824219 63.476562 -94.824219 C 56.769531 -94.824219 51.140625 -93.132812 46.582031 -89.746094 C 42.023438 -86.359375 38.589844 -81.65625 36.28125 -75.632812 C 33.96875 -69.613281 32.8125 -62.566406 32.8125 -54.492188 C 32.8125 -46.417969 33.984375 -39.289062 36.328125 -33.105469 C 38.671875 -26.921875 42.140625 -22.085938 46.726562 -18.601562 C 51.320312 -15.121094 56.902344 -13.378906 63.476562 -13.378906 Z M 63.476562 -13.378906 "/>
</g>
<g id="labs-glyph-3">
<path d="M 52.539062 2.34375 C 45.050781 2.34375 38.394531 1.253906 32.570312 -0.929688 C 26.742188 -3.109375 21.941406 -6.347656 18.164062 -10.644531 C 14.386719 -14.941406 11.847656 -20.214844 10.546875 -26.464844 L 27.246094 -30.46875 C 28.808594 -24.480469 31.753906 -20.085938 36.085938 -17.285156 C 40.414062 -14.484375 45.832031 -13.085938 52.34375 -13.085938 C 59.960938 -13.085938 66.03125 -14.714844 70.554688 -17.96875 C 75.082031 -21.222656 77.34375 -25.097656 77.34375 -29.589844 C 77.34375 -33.367188 76.023438 -36.507812 73.390625 -39.015625 C 70.75 -41.519531 66.730469 -43.390625 61.328125 -44.628906 L 43.164062 -48.925781 C 33.269531 -51.269531 25.910156 -54.898438 21.09375 -59.8125 C 16.277344 -64.730469 13.867188 -71.027344 13.867188 -78.710938 C 13.867188 -84.960938 15.625 -90.476562 19.140625 -95.265625 C 22.65625 -100.046875 27.457031 -103.792969 33.546875 -106.492188 C 39.632812 -109.195312 46.550781 -110.546875 54.296875 -110.546875 C 61.785156 -110.546875 68.148438 -109.421875 73.390625 -107.179688 C 78.628906 -104.929688 82.894531 -101.839844 86.179688 -97.898438 C 89.46875 -93.960938 91.925781 -89.421875 93.554688 -84.277344 L 77.636719 -80.175781 C 76.140625 -84.082031 73.648438 -87.628906 70.164062 -90.820312 C 66.683594 -94.011719 61.425781 -95.605469 54.394531 -95.605469 C 47.882812 -95.605469 42.464844 -94.109375 38.132812 -91.113281 C 33.804688 -88.117188 31.640625 -84.34375 31.640625 -79.785156 C 31.640625 -75.75 33.105469 -72.507812 36.035156 -70.070312 C 38.964844 -67.625 43.621094 -65.65625 50 -64.160156 L 66.503906 -60.253906 C 76.398438 -57.910156 83.722656 -54.28125 88.476562 -49.367188 C 93.230469 -44.449219 95.605469 -38.25 95.605469 -30.761719 C 95.605469 -24.382812 93.796875 -18.703125 90.1875 -13.71875 C 86.570312 -8.742188 81.527344 -4.816406 75.046875 -1.953125 C 68.570312 0.910156 61.066406 2.34375 52.539062 2.34375 Z M 52.539062 2.34375 "/>
</g>
</g>
</defs>
<g fill="#EDEDEC" fill-opacity="1">
<use xlink:href="#labs-glyph-0" x="-17" y="146.75"/>
<use xlink:href="#labs-glyph-1" x="96.09375" y="146.75"/>
<use xlink:href="#labs-glyph-2" x="208.40625" y="146.75"/>
<use xlink:href="#labs-glyph-3" x="330.875" y="146.75"/>
</g>
</svg>
  </svg>
</svg>
